<!DOCTYPE svg PUBLIC "-//W3C//DTD SVG 1.1//EN" "http://www.w3.org/Graphics/SVG/1.1/DTD/svg11.dtd">
<!-- Uploaded to: SVG Repo, www.svgrepo.com, Transformed by: SVG Repo Mixer Tools -->
<svg fill="#ffffff" width="800px" height="800px" viewBox="0 0 32 32" version="1.1" xmlns="http://www.w3.org/2000/svg" stroke="#ffffff">
<g id="SVGRepo_bgCarrier" stroke-width="0"/>
<g id="SVGRepo_tracerCarrier" stroke-linecap="round" stroke-linejoin="round"/>
<g id="SVGRepo_iconCarrier"> <title>hive-emblem</title> <path d="M28.944 8.438l-13.221-7.624-13.221 7.624v15.249l13.221 7.624 13.221-7.625-0-15.249zM12.31 22.071l-3.275 1.891-3.275-1.891v-3.782l3.275-1.891 3.275 1.891v3.782zM9.035 16.399l-3.275-1.891v-3.782l3.275-1.891 3.275 1.891v3.782l-3.275 1.891zM18.894 22.069v3.782l-3.275 1.891-3.275-1.891v-3.782l3.266-1.886-3.266-1.886v-3.782l3.275-1.891 3.275 1.891v3.782l-3.266 1.886 3.266 1.886zM15.619 12.619l-3.275-1.891v-3.782l3.275-1.891 3.275 1.891v3.782l-3.275 1.891zM25.455 22.071l-3.275 1.891-3.275-1.891v-3.782l3.275-1.891 3.275 1.891v3.782zM22.18 16.399l-3.275-1.891v-3.782l3.275-1.891 3.275 1.891v3.782l-3.275 1.891z"/> </g>
</svg>